# xmcd CD database file
#
# Track frame offsets:
#	150
#	12130
#	26415
#	39697
#	51620
#	64459
#	77165
#	89482
#	104955
#	118487
#	131200
#	143816
#	155652
#	166168
#	176832
#
# Disc length: 2505 seconds
#
# Revision: 0
# Processed by: cddbd v1.5.1PL0 Copyright (c) Steve Scherf et al.
# Submitted via: CDex 1.50
#
DISCID=e509c70f
DTITLE=Varios de blues - Simply rhythm and blues disk 2
DYEAR=2005
DGENRE=Blues
TTITLE0=Dancing in the street - Martha Reeves
TTITLE1=Baby now that I found you - The Foundations
TTITLE2=Jimmy mack - Martha Reeves
TTITLE3=Hold on I´m comming - Sam and Dave
TTITLE4=Rescue me - Fontella Bass
TTITLE5=B-A-B-Y - Carla Thomas
TTITLE6=Turn back the hands of time - Tyrone Davis
TTITLE7=I say a little prayer - Martha Reeves
TTITLE8=It´s all right - The Impressions
TTITLE9=The "N" crowd - Dobie Gray
TTITLE10=My guy - Mary Wells
TTITLE11=You´ll lose a good thing - Barbara Lynn
TTITLE12=I know - Barbara George
TTITLE13=Gimme little sign - Brenton Wood
TTITLE14=Make me your baby - Barbara Lewis
EXTD=YEAR: 2005
EXTT0=
EXTT1=
EXTT2=
EXTT3=
EXTT4=
EXTT5=
EXTT6=
EXTT7=
EXTT8=
EXTT9=
EXTT10=
EXTT11=
EXTT12=
EXTT13=
EXTT14=
PLAYORDER=
